%TF.GenerationSoftware,KiCad,Pcbnew,10.0.5-10.0.5~ubuntu24.04.1*%
%TF.CreationDate,2026-08-21T09:59:08-06:00*%
%TF.ProjectId,right_hand_4x2,72696768-745f-4686-916e-645f3478322e,rev?*%
%TF.SameCoordinates,Original*%
%TF.FileFunction,Soldermask,Bot*%
%TF.FilePolarity,Negative*%
%FSLAX46Y46*%
G04 Gerber Fmt 4.6, Leading zero omitted, Abs format (unit mm)*
G04 Created by KiCad (PCBNEW 10.0.5-10.0.5~ubuntu24.04.1) date 2026-08-21 09:59:08*
%MOMM*%
%LPD*%
G01*
G04 APERTURE LIST*
G04 Aperture macros list*
%AMRoundRect*
0 Rectangle with rounded corners*
0 $1 Rounding radius*
0 $2 $3 $4 $5 $6 $7 $8 $9 X,Y pos of 4 corners*
0 Add a 4 corners polygon primitive as box body*
4,1,4,$2,$3,$4,$5,$6,$7,$8,$9,$2,$3,0*
0 Add four circle primitives for the rounded corners*
1,1,$1+$1,$2,$3*
1,1,$1+$1,$4,$5*
1,1,$1+$1,$6,$7*
1,1,$1+$1,$8,$9*
0 Add four rect primitives between the rounded corners*
20,1,$1+$1,$2,$3,$4,$5,0*
20,1,$1+$1,$4,$5,$6,$7,0*
20,1,$1+$1,$6,$7,$8,$9,0*
20,1,$1+$1,$8,$9,$2,$3,0*%
G04 Aperture macros list end*
%ADD10RoundRect,0.102000X-0.754000X-0.754000X0.754000X-0.754000X0.754000X0.754000X-0.754000X0.754000X0*%
%ADD11C,1.712000*%
%ADD12C,4.000000*%
%ADD13C,2.200000*%
%ADD14RoundRect,0.225000X0.375000X-0.225000X0.375000X0.225000X-0.375000X0.225000X-0.375000X-0.225000X0*%
%ADD15C,3.600000*%
%ADD16C,5.700000*%
%ADD17RoundRect,0.250000X0.350000X0.450000X-0.350000X0.450000X-0.350000X-0.450000X0.350000X-0.450000X0*%
G04 APERTURE END LIST*
D10*
%TO.C,U1*%
X201682500Y-48340000D03*
D11*
X201682500Y-50880000D03*
X201682500Y-53420000D03*
X201682500Y-55960000D03*
X201682500Y-58500000D03*
X201682500Y-61040000D03*
X201682500Y-63580000D03*
X201682500Y-66120000D03*
X201682500Y-68660000D03*
X199142500Y-68660000D03*
X196602500Y-68660000D03*
X194062500Y-68660000D03*
X191522500Y-68660000D03*
X188982500Y-68660000D03*
X186442500Y-68660000D03*
X186442500Y-66120000D03*
X186442500Y-63580000D03*
X186442500Y-61040000D03*
X186442500Y-58500000D03*
X186442500Y-55960000D03*
X186442500Y-53420000D03*
X186442500Y-50880000D03*
X186442500Y-48340000D03*
%TD*%
D12*
%TO.C,SW6*%
X132810000Y-80040000D03*
D13*
X135350000Y-74960000D03*
X129000000Y-77500000D03*
%TD*%
D12*
%TO.C,SW8*%
X172810000Y-80040000D03*
D13*
X175350000Y-74960000D03*
X169000000Y-77500000D03*
%TD*%
D12*
%TO.C,SW3*%
X152910000Y-55040000D03*
D13*
X155450000Y-49960000D03*
X149100000Y-52500000D03*
%TD*%
D12*
%TO.C,SW5*%
X112810000Y-80040000D03*
D13*
X115350000Y-74960000D03*
X109000000Y-77500000D03*
%TD*%
D12*
%TO.C,SW7*%
X152810000Y-80040000D03*
D13*
X155350000Y-74960000D03*
X149000000Y-77500000D03*
%TD*%
D12*
%TO.C,SW2*%
X132860000Y-55040000D03*
D13*
X135400000Y-49960000D03*
X129050000Y-52500000D03*
%TD*%
D12*
%TO.C,SW4*%
X172960000Y-55040000D03*
D13*
X175500000Y-49960000D03*
X169150000Y-52500000D03*
%TD*%
D12*
%TO.C,SW1*%
X112810000Y-55040000D03*
D13*
X115350000Y-49960000D03*
X109000000Y-52500000D03*
%TD*%
D14*
%TO.C,D1*%
X105900000Y-60300000D03*
X105900000Y-57000000D03*
%TD*%
D15*
%TO.C,H2*%
X207800000Y-49200000D03*
D16*
X207800000Y-49200000D03*
%TD*%
D17*
%TO.C,R1*%
X194100000Y-75200000D03*
X192100000Y-75200000D03*
%TD*%
D14*
%TO.C,D6*%
X126300000Y-84950000D03*
X126300000Y-81650000D03*
%TD*%
%TO.C,D4*%
X166000000Y-60300000D03*
X166000000Y-57000000D03*
%TD*%
D15*
%TO.C,H4*%
X207900000Y-91000000D03*
D16*
X207900000Y-91000000D03*
%TD*%
D15*
%TO.C,H3*%
X99499817Y-91000000D03*
D16*
X99499817Y-91000000D03*
%TD*%
D14*
%TO.C,D8*%
X166100000Y-84950000D03*
X166100000Y-81650000D03*
%TD*%
%TO.C,D7*%
X146100000Y-84950000D03*
X146100000Y-81650000D03*
%TD*%
D15*
%TO.C,H1*%
X99400000Y-49500000D03*
D16*
X99400000Y-49500000D03*
%TD*%
D14*
%TO.C,D5*%
X106400000Y-84750000D03*
X106400000Y-81450000D03*
%TD*%
%TO.C,D3*%
X146300000Y-60250000D03*
X146300000Y-56950000D03*
%TD*%
%TO.C,D2*%
X126100000Y-60250000D03*
X126100000Y-56950000D03*
%TD*%
M02*
