%TF.GenerationSoftware,KiCad,Pcbnew,10.0.5-10.0.5~ubuntu24.04.1*%
%TF.CreationDate,2026-08-21T09:59:08-06:00*%
%TF.ProjectId,right_hand_4x2,72696768-745f-4686-916e-645f3478322e,rev?*%
%TF.SameCoordinates,Original*%
%TF.FileFunction,Paste,Top*%
%TF.FilePolarity,Positive*%
%FSLAX46Y46*%
G04 Gerber Fmt 4.6, Leading zero omitted, Abs format (unit mm)*
G04 Created by KiCad (PCBNEW 10.0.5-10.0.5~ubuntu24.04.1) date 2026-08-21 09:59:08*
%MOMM*%
%LPD*%
G01*
G04 APERTURE LIST*
G04 Aperture macros list*
%AMRoundRect*
0 Rectangle with rounded corners*
0 $1 Rounding radius*
0 $2 $3 $4 $5 $6 $7 $8 $9 X,Y pos of 4 corners*
0 Add a 4 corners polygon primitive as box body*
4,1,4,$2,$3,$4,$5,$6,$7,$8,$9,$2,$3,0*
0 Add four circle primitives for the rounded corners*
1,1,$1+$1,$2,$3*
1,1,$1+$1,$4,$5*
1,1,$1+$1,$6,$7*
1,1,$1+$1,$8,$9*
0 Add four rect primitives between the rounded corners*
20,1,$1+$1,$2,$3,$4,$5,0*
20,1,$1+$1,$4,$5,$6,$7,0*
20,1,$1+$1,$6,$7,$8,$9,0*
20,1,$1+$1,$8,$9,$2,$3,0*%
G04 Aperture macros list end*
%ADD10RoundRect,0.090000X-0.660000X-0.360000X0.660000X-0.360000X0.660000X0.360000X-0.660000X0.360000X0*%
%ADD11RoundRect,0.250000X0.337500X0.475000X-0.337500X0.475000X-0.337500X-0.475000X0.337500X-0.475000X0*%
%ADD12RoundRect,0.250000X-0.475000X0.337500X-0.475000X-0.337500X0.475000X-0.337500X0.475000X0.337500X0*%
G04 APERTURE END LIST*
D10*
%TO.C,D12*%
X155250000Y-63450000D03*
X155250000Y-66750000D03*
X150350000Y-66750000D03*
X150350000Y-63450000D03*
%TD*%
%TO.C,D15*%
X130400000Y-88600000D03*
X130400000Y-91900000D03*
X135300000Y-91900000D03*
X135300000Y-88600000D03*
%TD*%
D11*
%TO.C,C7*%
X147037500Y-91700000D03*
X144962500Y-91700000D03*
%TD*%
D10*
%TO.C,D13*%
X170500000Y-63600000D03*
X170500000Y-66900000D03*
X175400000Y-66900000D03*
X175400000Y-63600000D03*
%TD*%
%TO.C,D14*%
X111000000Y-88500000D03*
X111000000Y-91800000D03*
X115900000Y-91800000D03*
X115900000Y-88500000D03*
%TD*%
D11*
%TO.C,C6*%
X126000000Y-91800000D03*
X123925000Y-91800000D03*
%TD*%
D12*
%TO.C,C4*%
X164600000Y-65625000D03*
X164600000Y-67700000D03*
%TD*%
%TO.C,C3*%
X144700000Y-65800000D03*
X144700000Y-67875000D03*
%TD*%
%TO.C,C1*%
X104600000Y-65900000D03*
X104600000Y-67975000D03*
%TD*%
D11*
%TO.C,C5*%
X107737500Y-91100000D03*
X105662500Y-91100000D03*
%TD*%
%TO.C,C8*%
X166337500Y-92400000D03*
X164262500Y-92400000D03*
%TD*%
D10*
%TO.C,D11*%
X130750000Y-63450000D03*
X130750000Y-66750000D03*
X135650000Y-66750000D03*
X135650000Y-63450000D03*
%TD*%
%TO.C,D17*%
X170650000Y-88650000D03*
X170650000Y-91950000D03*
X175550000Y-91950000D03*
X175550000Y-88650000D03*
%TD*%
D12*
%TO.C,C2*%
X124600000Y-65762500D03*
X124600000Y-67837500D03*
%TD*%
D10*
%TO.C,D10*%
X110550000Y-63450000D03*
X110550000Y-66750000D03*
X115450000Y-66750000D03*
X115450000Y-63450000D03*
%TD*%
%TO.C,D16*%
X150350000Y-88750000D03*
X150350000Y-92050000D03*
X155250000Y-92050000D03*
X155250000Y-88750000D03*
%TD*%
M02*
