M48
; DRILL file KiCad 10.0.5-10.0.5~ubuntu24.04.1 date 2026-08-21T09:59:16
; FORMAT={-:-/ absolute / metric / decimal}
; #@! TF.CreationDate,2026-08-21T09:59:16-06:00
; #@! TF.GenerationSoftware,Kicad,Pcbnew,10.0.5-10.0.5~ubuntu24.04.1
; #@! TF.FileFunction,Plated,1,2,PTH
FMAT,2
METRIC
; #@! TA.AperFunction,Plated,PTH,ViaDrill
T1C0.300
; #@! TA.AperFunction,Plated,PTH,ViaDrill
T2C0.330
; #@! TA.AperFunction,Plated,PTH,ViaDrill
T3C0.400
; #@! TA.AperFunction,Plated,PTH,ComponentDrill
T4C1.000
; #@! TA.AperFunction,Plated,PTH,ComponentDrill
T5C1.500
; #@! TA.AperFunction,Plated,PTH,ComponentDrill
T6C3.200
%
G90
G05
T1
X118.3Y-63.6
X138.2Y-61.3
X138.2Y-70.7
X154.0Y-68.5
X158.1Y-61.4
X158.2Y-70.4
X188.8Y-59.9
X205.6Y-64.7
T2
X104.6Y-71.4
X105.6Y-88.8
X119.8Y-91.8
X120.5Y-67.837
X140.3Y-91.7
X140.4Y-67.8
X159.8Y-92.4
X160.6Y-67.8
X178.1Y-66.8
X179.1Y-92.0
T3
X182.3Y-54.7
T4
X186.442Y-48.34
X186.442Y-50.88
X186.442Y-53.42
X186.442Y-55.96
X186.442Y-58.5
X186.442Y-61.04
X186.442Y-63.58
X186.442Y-66.12
X186.442Y-68.66
X188.982Y-68.66
X191.522Y-68.66
X194.062Y-68.66
X196.602Y-68.66
X199.142Y-68.66
X201.683Y-48.34
X201.683Y-50.88
X201.683Y-53.42
X201.683Y-55.96
X201.683Y-58.5
X201.683Y-61.04
X201.683Y-63.58
X201.683Y-66.12
X201.683Y-68.66
T5
X109.0Y-52.5
X109.0Y-77.5
X115.35Y-49.96
X115.35Y-74.96
X129.0Y-77.5
X129.05Y-52.5
X135.35Y-74.96
X135.4Y-49.96
X149.0Y-77.5
X149.1Y-52.5
X155.35Y-74.96
X155.45Y-49.96
X169.0Y-77.5
X169.15Y-52.5
X175.35Y-74.96
X175.5Y-49.96
T6
X99.4Y-49.5
X99.5Y-91.0
X207.8Y-49.2
X207.9Y-91.0
M30
