%TF.GenerationSoftware,KiCad,Pcbnew,10.0.5-10.0.5~ubuntu24.04.1*%
%TF.CreationDate,2026-08-21T09:59:08-06:00*%
%TF.ProjectId,right_hand_4x2,72696768-745f-4686-916e-645f3478322e,rev?*%
%TF.SameCoordinates,Original*%
%TF.FileFunction,Legend,Bot*%
%TF.FilePolarity,Positive*%
%FSLAX46Y46*%
G04 Gerber Fmt 4.6, Leading zero omitted, Abs format (unit mm)*
G04 Created by KiCad (PCBNEW 10.0.5-10.0.5~ubuntu24.04.1) date 2026-08-21 09:59:08*
%MOMM*%
%LPD*%
G01*
G04 APERTURE LIST*
%ADD10C,0.100000*%
%ADD11C,0.127000*%
%ADD12C,0.254000*%
%ADD13C,0.381000*%
%ADD14C,0.150000*%
%ADD15C,0.120000*%
G04 APERTURE END LIST*
D10*
X180431250Y-76712500D02*
X201700000Y-76712500D01*
X201700000Y-87550000D01*
X180431250Y-87550000D01*
X180431250Y-76712500D01*
G36*
X180431250Y-76712500D02*
G01*
X201700000Y-76712500D01*
X201700000Y-87550000D01*
X180431250Y-87550000D01*
X180431250Y-76712500D01*
G37*
X111931250Y-86925000D02*
X151768750Y-86925000D01*
X151768750Y-93575000D01*
X111931250Y-93575000D01*
X111931250Y-86925000D01*
G36*
X111931250Y-86925000D02*
G01*
X151768750Y-86925000D01*
X151768750Y-93575000D01*
X111931250Y-93575000D01*
X111931250Y-86925000D01*
G37*
D11*
G36*
X208062978Y-59511200D02*
G01*
X208062978Y-58738830D01*
X208262600Y-58722601D01*
X208420274Y-58672343D01*
X208545196Y-58591615D01*
X208647788Y-58481039D01*
X208731250Y-58341371D01*
X208794960Y-58167091D01*
X208849901Y-57883203D01*
X208869592Y-57543985D01*
X208869592Y-56554049D01*
X208498296Y-56554049D01*
X208498296Y-57505645D01*
X208487578Y-57819042D01*
X208459957Y-58041093D01*
X208424951Y-58176022D01*
X208380184Y-58274378D01*
X208327630Y-58344085D01*
X208259389Y-58395888D01*
X208172952Y-58428397D01*
X208062978Y-58440119D01*
X208062978Y-57240993D01*
X207747330Y-57240993D01*
X207747330Y-58440119D01*
X207637481Y-58428402D01*
X207551101Y-58395897D01*
X207482863Y-58344085D01*
X207430218Y-58274358D01*
X207385449Y-58176001D01*
X207350537Y-58041093D01*
X207322782Y-57819042D01*
X207312011Y-57505645D01*
X207312011Y-56554049D01*
X206940716Y-56554049D01*
X206940716Y-57543985D01*
X206959349Y-57883392D01*
X207011253Y-58167091D01*
X207072373Y-58341294D01*
X207154346Y-58480934D01*
X207256550Y-58591615D01*
X207381618Y-58672007D01*
X207541864Y-58722433D01*
X207747330Y-58738830D01*
X207747330Y-59511200D01*
X208062978Y-59511200D01*
G37*
G36*
X208285010Y-63402935D02*
G01*
X208579441Y-63185183D01*
X208481174Y-63061418D01*
X208349033Y-62907874D01*
X208208146Y-62764940D01*
X208062978Y-62626285D01*
X208257280Y-62596507D01*
X208449348Y-62564496D01*
X208639184Y-62519643D01*
X208814130Y-62468461D01*
X208703206Y-62122663D01*
X208528260Y-62190967D01*
X208346800Y-62265784D01*
X208171854Y-62346743D01*
X207999141Y-62434217D01*
X208039713Y-62208089D01*
X208071725Y-61984195D01*
X208084381Y-61755835D01*
X208084381Y-61674689D01*
X207717366Y-61674689D01*
X207717366Y-61759929D01*
X207730207Y-61986243D01*
X207762219Y-62208089D01*
X207802792Y-62434217D01*
X207615003Y-62338182D01*
X207427402Y-62250709D01*
X207239427Y-62173844D01*
X207115662Y-62126944D01*
X207000458Y-62472556D01*
X207132785Y-62506801D01*
X207286514Y-62541046D01*
X207440057Y-62572871D01*
X207593787Y-62598554D01*
X207747330Y-62622005D01*
X207587273Y-62769220D01*
X207435777Y-62918669D01*
X207303450Y-63082821D01*
X207231052Y-63189463D01*
X207538139Y-63402935D01*
X207615003Y-63287731D01*
X207719599Y-63108504D01*
X207811353Y-62927044D01*
X207900873Y-62745770D01*
X207994860Y-62933558D01*
X208090895Y-63119113D01*
X208208146Y-63300387D01*
X208285010Y-63402935D01*
G37*
D10*
D12*
X185849180Y-92650283D02*
X186357180Y-91924569D01*
X186720037Y-92650283D02*
X186720037Y-91126283D01*
X186720037Y-91126283D02*
X186139466Y-91126283D01*
X186139466Y-91126283D02*
X185994323Y-91198854D01*
X185994323Y-91198854D02*
X185921752Y-91271426D01*
X185921752Y-91271426D02*
X185849180Y-91416569D01*
X185849180Y-91416569D02*
X185849180Y-91634283D01*
X185849180Y-91634283D02*
X185921752Y-91779426D01*
X185921752Y-91779426D02*
X185994323Y-91851997D01*
X185994323Y-91851997D02*
X186139466Y-91924569D01*
X186139466Y-91924569D02*
X186720037Y-91924569D01*
X185196037Y-91851997D02*
X184688037Y-91851997D01*
X184470323Y-92650283D02*
X185196037Y-92650283D01*
X185196037Y-92650283D02*
X185196037Y-91126283D01*
X185196037Y-91126283D02*
X184470323Y-91126283D01*
X184034895Y-91126283D02*
X183526895Y-92650283D01*
X183526895Y-92650283D02*
X183018895Y-91126283D01*
X182510894Y-92505140D02*
X182438323Y-92577712D01*
X182438323Y-92577712D02*
X182510894Y-92650283D01*
X182510894Y-92650283D02*
X182583466Y-92577712D01*
X182583466Y-92577712D02*
X182510894Y-92505140D01*
X182510894Y-92505140D02*
X182510894Y-92650283D01*
X182510894Y-91706854D02*
X182438323Y-91779426D01*
X182438323Y-91779426D02*
X182510894Y-91851997D01*
X182510894Y-91851997D02*
X182583466Y-91779426D01*
X182583466Y-91779426D02*
X182510894Y-91706854D01*
X182510894Y-91706854D02*
X182510894Y-91851997D01*
X180333752Y-91126283D02*
X180188609Y-91126283D01*
X180188609Y-91126283D02*
X180043466Y-91198854D01*
X180043466Y-91198854D02*
X179970895Y-91271426D01*
X179970895Y-91271426D02*
X179898323Y-91416569D01*
X179898323Y-91416569D02*
X179825752Y-91706854D01*
X179825752Y-91706854D02*
X179825752Y-92069712D01*
X179825752Y-92069712D02*
X179898323Y-92359997D01*
X179898323Y-92359997D02*
X179970895Y-92505140D01*
X179970895Y-92505140D02*
X180043466Y-92577712D01*
X180043466Y-92577712D02*
X180188609Y-92650283D01*
X180188609Y-92650283D02*
X180333752Y-92650283D01*
X180333752Y-92650283D02*
X180478895Y-92577712D01*
X180478895Y-92577712D02*
X180551466Y-92505140D01*
X180551466Y-92505140D02*
X180624037Y-92359997D01*
X180624037Y-92359997D02*
X180696609Y-92069712D01*
X180696609Y-92069712D02*
X180696609Y-91706854D01*
X180696609Y-91706854D02*
X180624037Y-91416569D01*
X180624037Y-91416569D02*
X180551466Y-91271426D01*
X180551466Y-91271426D02*
X180478895Y-91198854D01*
X180478895Y-91198854D02*
X180333752Y-91126283D01*
X179172608Y-92505140D02*
X179100037Y-92577712D01*
X179100037Y-92577712D02*
X179172608Y-92650283D01*
X179172608Y-92650283D02*
X179245180Y-92577712D01*
X179245180Y-92577712D02*
X179172608Y-92505140D01*
X179172608Y-92505140D02*
X179172608Y-92650283D01*
X177648609Y-92650283D02*
X178519466Y-92650283D01*
X178084037Y-92650283D02*
X178084037Y-91126283D01*
X178084037Y-91126283D02*
X178229180Y-91343997D01*
X178229180Y-91343997D02*
X178374323Y-91489140D01*
X178374323Y-91489140D02*
X178519466Y-91561712D01*
X174745751Y-91053712D02*
X176052037Y-93013140D01*
X173149180Y-91053712D02*
X174455466Y-93013140D01*
X171480037Y-92650283D02*
X171480037Y-91126283D01*
X171480037Y-91126283D02*
X171117180Y-91126283D01*
X171117180Y-91126283D02*
X170899466Y-91198854D01*
X170899466Y-91198854D02*
X170754323Y-91343997D01*
X170754323Y-91343997D02*
X170681752Y-91489140D01*
X170681752Y-91489140D02*
X170609180Y-91779426D01*
X170609180Y-91779426D02*
X170609180Y-91997140D01*
X170609180Y-91997140D02*
X170681752Y-92287426D01*
X170681752Y-92287426D02*
X170754323Y-92432569D01*
X170754323Y-92432569D02*
X170899466Y-92577712D01*
X170899466Y-92577712D02*
X171117180Y-92650283D01*
X171117180Y-92650283D02*
X171480037Y-92650283D01*
X170028609Y-92214854D02*
X169302895Y-92214854D01*
X170173752Y-92650283D02*
X169665752Y-91126283D01*
X169665752Y-91126283D02*
X169157752Y-92650283D01*
X168867466Y-91126283D02*
X167996609Y-91126283D01*
X168432037Y-92650283D02*
X168432037Y-91126283D01*
X167488608Y-91851997D02*
X166980608Y-91851997D01*
X166762894Y-92650283D02*
X167488608Y-92650283D01*
X167488608Y-92650283D02*
X167488608Y-91126283D01*
X167488608Y-91126283D02*
X166762894Y-91126283D01*
X166109751Y-92505140D02*
X166037180Y-92577712D01*
X166037180Y-92577712D02*
X166109751Y-92650283D01*
X166109751Y-92650283D02*
X166182323Y-92577712D01*
X166182323Y-92577712D02*
X166109751Y-92505140D01*
X166109751Y-92505140D02*
X166109751Y-92650283D01*
X166109751Y-91706854D02*
X166037180Y-91779426D01*
X166037180Y-91779426D02*
X166109751Y-91851997D01*
X166109751Y-91851997D02*
X166182323Y-91779426D01*
X166182323Y-91779426D02*
X166109751Y-91706854D01*
X166109751Y-91706854D02*
X166109751Y-91851997D01*
X164295466Y-92214854D02*
X163569752Y-92214854D01*
X164440609Y-92650283D02*
X163932609Y-91126283D01*
X163932609Y-91126283D02*
X163424609Y-92650283D01*
X162916608Y-91126283D02*
X162916608Y-92359997D01*
X162916608Y-92359997D02*
X162844037Y-92505140D01*
X162844037Y-92505140D02*
X162771466Y-92577712D01*
X162771466Y-92577712D02*
X162626323Y-92650283D01*
X162626323Y-92650283D02*
X162336037Y-92650283D01*
X162336037Y-92650283D02*
X162190894Y-92577712D01*
X162190894Y-92577712D02*
X162118323Y-92505140D01*
X162118323Y-92505140D02*
X162045751Y-92359997D01*
X162045751Y-92359997D02*
X162045751Y-91126283D01*
X160521752Y-91198854D02*
X160666895Y-91126283D01*
X160666895Y-91126283D02*
X160884609Y-91126283D01*
X160884609Y-91126283D02*
X161102323Y-91198854D01*
X161102323Y-91198854D02*
X161247466Y-91343997D01*
X161247466Y-91343997D02*
X161320037Y-91489140D01*
X161320037Y-91489140D02*
X161392609Y-91779426D01*
X161392609Y-91779426D02*
X161392609Y-91997140D01*
X161392609Y-91997140D02*
X161320037Y-92287426D01*
X161320037Y-92287426D02*
X161247466Y-92432569D01*
X161247466Y-92432569D02*
X161102323Y-92577712D01*
X161102323Y-92577712D02*
X160884609Y-92650283D01*
X160884609Y-92650283D02*
X160739466Y-92650283D01*
X160739466Y-92650283D02*
X160521752Y-92577712D01*
X160521752Y-92577712D02*
X160449180Y-92505140D01*
X160449180Y-92505140D02*
X160449180Y-91997140D01*
X160449180Y-91997140D02*
X160739466Y-91997140D01*
X158707466Y-91271426D02*
X158634894Y-91198854D01*
X158634894Y-91198854D02*
X158489752Y-91126283D01*
X158489752Y-91126283D02*
X158126894Y-91126283D01*
X158126894Y-91126283D02*
X157981752Y-91198854D01*
X157981752Y-91198854D02*
X157909180Y-91271426D01*
X157909180Y-91271426D02*
X157836609Y-91416569D01*
X157836609Y-91416569D02*
X157836609Y-91561712D01*
X157836609Y-91561712D02*
X157909180Y-91779426D01*
X157909180Y-91779426D02*
X158780037Y-92650283D01*
X158780037Y-92650283D02*
X157836609Y-92650283D01*
X156893180Y-91126283D02*
X156748037Y-91126283D01*
X156748037Y-91126283D02*
X156602894Y-91198854D01*
X156602894Y-91198854D02*
X156530323Y-91271426D01*
X156530323Y-91271426D02*
X156457751Y-91416569D01*
X156457751Y-91416569D02*
X156385180Y-91706854D01*
X156385180Y-91706854D02*
X156385180Y-92069712D01*
X156385180Y-92069712D02*
X156457751Y-92359997D01*
X156457751Y-92359997D02*
X156530323Y-92505140D01*
X156530323Y-92505140D02*
X156602894Y-92577712D01*
X156602894Y-92577712D02*
X156748037Y-92650283D01*
X156748037Y-92650283D02*
X156893180Y-92650283D01*
X156893180Y-92650283D02*
X157038323Y-92577712D01*
X157038323Y-92577712D02*
X157110894Y-92505140D01*
X157110894Y-92505140D02*
X157183465Y-92359997D01*
X157183465Y-92359997D02*
X157256037Y-92069712D01*
X157256037Y-92069712D02*
X157256037Y-91706854D01*
X157256037Y-91706854D02*
X157183465Y-91416569D01*
X157183465Y-91416569D02*
X157110894Y-91271426D01*
X157110894Y-91271426D02*
X157038323Y-91198854D01*
X157038323Y-91198854D02*
X156893180Y-91126283D01*
X155804608Y-91271426D02*
X155732036Y-91198854D01*
X155732036Y-91198854D02*
X155586894Y-91126283D01*
X155586894Y-91126283D02*
X155224036Y-91126283D01*
X155224036Y-91126283D02*
X155078894Y-91198854D01*
X155078894Y-91198854D02*
X155006322Y-91271426D01*
X155006322Y-91271426D02*
X154933751Y-91416569D01*
X154933751Y-91416569D02*
X154933751Y-91561712D01*
X154933751Y-91561712D02*
X155006322Y-91779426D01*
X155006322Y-91779426D02*
X155877179Y-92650283D01*
X155877179Y-92650283D02*
X154933751Y-92650283D01*
X153627465Y-91126283D02*
X153917750Y-91126283D01*
X153917750Y-91126283D02*
X154062893Y-91198854D01*
X154062893Y-91198854D02*
X154135465Y-91271426D01*
X154135465Y-91271426D02*
X154280607Y-91489140D01*
X154280607Y-91489140D02*
X154353179Y-91779426D01*
X154353179Y-91779426D02*
X154353179Y-92359997D01*
X154353179Y-92359997D02*
X154280607Y-92505140D01*
X154280607Y-92505140D02*
X154208036Y-92577712D01*
X154208036Y-92577712D02*
X154062893Y-92650283D01*
X154062893Y-92650283D02*
X153772607Y-92650283D01*
X153772607Y-92650283D02*
X153627465Y-92577712D01*
X153627465Y-92577712D02*
X153554893Y-92505140D01*
X153554893Y-92505140D02*
X153482322Y-92359997D01*
X153482322Y-92359997D02*
X153482322Y-91997140D01*
X153482322Y-91997140D02*
X153554893Y-91851997D01*
X153554893Y-91851997D02*
X153627465Y-91779426D01*
X153627465Y-91779426D02*
X153772607Y-91706854D01*
X153772607Y-91706854D02*
X154062893Y-91706854D01*
X154062893Y-91706854D02*
X154208036Y-91779426D01*
X154208036Y-91779426D02*
X154280607Y-91851997D01*
X154280607Y-91851997D02*
X154353179Y-91997140D01*
D13*
X99179568Y-64644942D02*
X98852996Y-65951228D01*
X98417568Y-64753799D02*
X98199853Y-65624657D01*
X97546710Y-65080371D02*
X99941568Y-65515799D01*
X98852996Y-66822085D02*
X98852996Y-68563799D01*
X98199853Y-70414371D02*
X99506139Y-70849799D01*
X98199853Y-69870085D02*
X98744139Y-69761228D01*
X98744139Y-69761228D02*
X99179568Y-69543513D01*
X99179568Y-69543513D02*
X99506139Y-69325799D01*
X97873282Y-70632085D02*
X97873282Y-70740942D01*
X97873282Y-70740942D02*
X97982139Y-70849799D01*
X97982139Y-70849799D02*
X98090996Y-70849799D01*
X98090996Y-70849799D02*
X98199853Y-70740942D01*
X98199853Y-70740942D02*
X98199853Y-70632085D01*
X98199853Y-70632085D02*
X98090996Y-70523228D01*
X98090996Y-70523228D02*
X97982139Y-70523228D01*
X97982139Y-70523228D02*
X97873282Y-70632085D01*
X98417568Y-71829513D02*
X98961853Y-72047228D01*
X98308710Y-72373799D02*
X98852996Y-72482656D01*
X98417568Y-73026942D02*
X98961853Y-73026942D01*
X98961853Y-73026942D02*
X99288425Y-72918085D01*
X99288425Y-72918085D02*
X99614996Y-72591513D01*
X99614996Y-72591513D02*
X99832710Y-72264942D01*
X98526425Y-74877513D02*
X99070710Y-75530656D01*
X97546710Y-74877513D02*
X99941568Y-74877513D01*
X98308710Y-75312942D02*
X98526425Y-75530656D01*
X98199853Y-75639513D02*
X98417568Y-75857227D01*
X179948771Y-69332710D02*
X180057628Y-69441568D01*
X180057628Y-69441568D02*
X180384200Y-69550425D01*
X180384200Y-69550425D02*
X180601914Y-69550425D01*
X180601914Y-69550425D02*
X180928485Y-69441568D01*
X180928485Y-69441568D02*
X181146200Y-69223853D01*
X181146200Y-69223853D02*
X181255057Y-69006139D01*
X181255057Y-69006139D02*
X181363914Y-68570710D01*
X181363914Y-68570710D02*
X181363914Y-68244139D01*
X181363914Y-68244139D02*
X181255057Y-67808710D01*
X181255057Y-67808710D02*
X181146200Y-67590996D01*
X181146200Y-67590996D02*
X180928485Y-67373282D01*
X180928485Y-67373282D02*
X180601914Y-67264425D01*
X180601914Y-67264425D02*
X180384200Y-67264425D01*
X180384200Y-67264425D02*
X180057628Y-67373282D01*
X180057628Y-67373282D02*
X179948771Y-67482139D01*
X179077914Y-68897282D02*
X177989343Y-68897282D01*
X179295628Y-69550425D02*
X178533628Y-67264425D01*
X178533628Y-67264425D02*
X177771628Y-69550425D01*
X177009628Y-69550425D02*
X177009628Y-67264425D01*
X177009628Y-67264425D02*
X176465342Y-67264425D01*
X176465342Y-67264425D02*
X176138771Y-67373282D01*
X176138771Y-67373282D02*
X175921056Y-67590996D01*
X175921056Y-67590996D02*
X175812199Y-67808710D01*
X175812199Y-67808710D02*
X175703342Y-68244139D01*
X175703342Y-68244139D02*
X175703342Y-68570710D01*
X175703342Y-68570710D02*
X175812199Y-69006139D01*
X175812199Y-69006139D02*
X175921056Y-69223853D01*
X175921056Y-69223853D02*
X176138771Y-69441568D01*
X176138771Y-69441568D02*
X176465342Y-69550425D01*
X176465342Y-69550425D02*
X177009628Y-69550425D01*
X173090771Y-69441568D02*
X172873057Y-69550425D01*
X172873057Y-69550425D02*
X172437628Y-69550425D01*
X172437628Y-69550425D02*
X172219914Y-69441568D01*
X172219914Y-69441568D02*
X172111057Y-69223853D01*
X172111057Y-69223853D02*
X172111057Y-69114996D01*
X172111057Y-69114996D02*
X172219914Y-68897282D01*
X172219914Y-68897282D02*
X172437628Y-68788425D01*
X172437628Y-68788425D02*
X172764200Y-68788425D01*
X172764200Y-68788425D02*
X172981914Y-68679568D01*
X172981914Y-68679568D02*
X173090771Y-68461853D01*
X173090771Y-68461853D02*
X173090771Y-68352996D01*
X173090771Y-68352996D02*
X172981914Y-68135282D01*
X172981914Y-68135282D02*
X172764200Y-68026425D01*
X172764200Y-68026425D02*
X172437628Y-68026425D01*
X172437628Y-68026425D02*
X172219914Y-68135282D01*
X171457914Y-68026425D02*
X170587057Y-68026425D01*
X171131343Y-67264425D02*
X171131343Y-69223853D01*
X171131343Y-69223853D02*
X171022486Y-69441568D01*
X171022486Y-69441568D02*
X170804771Y-69550425D01*
X170804771Y-69550425D02*
X170587057Y-69550425D01*
X168845343Y-69550425D02*
X168845343Y-68352996D01*
X168845343Y-68352996D02*
X168954200Y-68135282D01*
X168954200Y-68135282D02*
X169171914Y-68026425D01*
X169171914Y-68026425D02*
X169607343Y-68026425D01*
X169607343Y-68026425D02*
X169825057Y-68135282D01*
X168845343Y-69441568D02*
X169063057Y-69550425D01*
X169063057Y-69550425D02*
X169607343Y-69550425D01*
X169607343Y-69550425D02*
X169825057Y-69441568D01*
X169825057Y-69441568D02*
X169933914Y-69223853D01*
X169933914Y-69223853D02*
X169933914Y-69006139D01*
X169933914Y-69006139D02*
X169825057Y-68788425D01*
X169825057Y-68788425D02*
X169607343Y-68679568D01*
X169607343Y-68679568D02*
X169063057Y-68679568D01*
X169063057Y-68679568D02*
X168845343Y-68570710D01*
X167756771Y-68026425D02*
X167756771Y-69550425D01*
X167756771Y-68244139D02*
X167647914Y-68135282D01*
X167647914Y-68135282D02*
X167430199Y-68026425D01*
X167430199Y-68026425D02*
X167103628Y-68026425D01*
X167103628Y-68026425D02*
X166885914Y-68135282D01*
X166885914Y-68135282D02*
X166777057Y-68352996D01*
X166777057Y-68352996D02*
X166777057Y-69550425D01*
X164708771Y-69550425D02*
X164708771Y-67264425D01*
X164708771Y-69441568D02*
X164926485Y-69550425D01*
X164926485Y-69550425D02*
X165361913Y-69550425D01*
X165361913Y-69550425D02*
X165579628Y-69441568D01*
X165579628Y-69441568D02*
X165688485Y-69332710D01*
X165688485Y-69332710D02*
X165797342Y-69114996D01*
X165797342Y-69114996D02*
X165797342Y-68461853D01*
X165797342Y-68461853D02*
X165688485Y-68244139D01*
X165688485Y-68244139D02*
X165579628Y-68135282D01*
X165579628Y-68135282D02*
X165361913Y-68026425D01*
X165361913Y-68026425D02*
X164926485Y-68026425D01*
X164926485Y-68026425D02*
X164708771Y-68135282D01*
X163729056Y-69441568D02*
X163511342Y-69550425D01*
X163511342Y-69550425D02*
X163075913Y-69550425D01*
X163075913Y-69550425D02*
X162858199Y-69441568D01*
X162858199Y-69441568D02*
X162749342Y-69223853D01*
X162749342Y-69223853D02*
X162749342Y-69114996D01*
X162749342Y-69114996D02*
X162858199Y-68897282D01*
X162858199Y-68897282D02*
X163075913Y-68788425D01*
X163075913Y-68788425D02*
X163402485Y-68788425D01*
X163402485Y-68788425D02*
X163620199Y-68679568D01*
X163620199Y-68679568D02*
X163729056Y-68461853D01*
X163729056Y-68461853D02*
X163729056Y-68352996D01*
X163729056Y-68352996D02*
X163620199Y-68135282D01*
X163620199Y-68135282D02*
X163402485Y-68026425D01*
X163402485Y-68026425D02*
X163075913Y-68026425D01*
X163075913Y-68026425D02*
X162858199Y-68135282D01*
X160354485Y-68026425D02*
X159483628Y-68026425D01*
X160027914Y-69550425D02*
X160027914Y-67590996D01*
X160027914Y-67590996D02*
X159919057Y-67373282D01*
X159919057Y-67373282D02*
X159701342Y-67264425D01*
X159701342Y-67264425D02*
X159483628Y-67264425D01*
X158395056Y-69550425D02*
X158612771Y-69441568D01*
X158612771Y-69441568D02*
X158721628Y-69332710D01*
X158721628Y-69332710D02*
X158830485Y-69114996D01*
X158830485Y-69114996D02*
X158830485Y-68461853D01*
X158830485Y-68461853D02*
X158721628Y-68244139D01*
X158721628Y-68244139D02*
X158612771Y-68135282D01*
X158612771Y-68135282D02*
X158395056Y-68026425D01*
X158395056Y-68026425D02*
X158068485Y-68026425D01*
X158068485Y-68026425D02*
X157850771Y-68135282D01*
X157850771Y-68135282D02*
X157741914Y-68244139D01*
X157741914Y-68244139D02*
X157633056Y-68461853D01*
X157633056Y-68461853D02*
X157633056Y-69114996D01*
X157633056Y-69114996D02*
X157741914Y-69332710D01*
X157741914Y-69332710D02*
X157850771Y-69441568D01*
X157850771Y-69441568D02*
X158068485Y-69550425D01*
X158068485Y-69550425D02*
X158395056Y-69550425D01*
X156653342Y-69550425D02*
X156653342Y-68026425D01*
X156653342Y-68461853D02*
X156544485Y-68244139D01*
X156544485Y-68244139D02*
X156435628Y-68135282D01*
X156435628Y-68135282D02*
X156217913Y-68026425D01*
X156217913Y-68026425D02*
X156000199Y-68026425D01*
X152190199Y-69332710D02*
X152299056Y-69441568D01*
X152299056Y-69441568D02*
X152625628Y-69550425D01*
X152625628Y-69550425D02*
X152843342Y-69550425D01*
X152843342Y-69550425D02*
X153169913Y-69441568D01*
X153169913Y-69441568D02*
X153387628Y-69223853D01*
X153387628Y-69223853D02*
X153496485Y-69006139D01*
X153496485Y-69006139D02*
X153605342Y-68570710D01*
X153605342Y-68570710D02*
X153605342Y-68244139D01*
X153605342Y-68244139D02*
X153496485Y-67808710D01*
X153496485Y-67808710D02*
X153387628Y-67590996D01*
X153387628Y-67590996D02*
X153169913Y-67373282D01*
X153169913Y-67373282D02*
X152843342Y-67264425D01*
X152843342Y-67264425D02*
X152625628Y-67264425D01*
X152625628Y-67264425D02*
X152299056Y-67373282D01*
X152299056Y-67373282D02*
X152190199Y-67482139D01*
X150883913Y-69550425D02*
X151101628Y-69441568D01*
X151101628Y-69441568D02*
X151210485Y-69332710D01*
X151210485Y-69332710D02*
X151319342Y-69114996D01*
X151319342Y-69114996D02*
X151319342Y-68461853D01*
X151319342Y-68461853D02*
X151210485Y-68244139D01*
X151210485Y-68244139D02*
X151101628Y-68135282D01*
X151101628Y-68135282D02*
X150883913Y-68026425D01*
X150883913Y-68026425D02*
X150557342Y-68026425D01*
X150557342Y-68026425D02*
X150339628Y-68135282D01*
X150339628Y-68135282D02*
X150230771Y-68244139D01*
X150230771Y-68244139D02*
X150121913Y-68461853D01*
X150121913Y-68461853D02*
X150121913Y-69114996D01*
X150121913Y-69114996D02*
X150230771Y-69332710D01*
X150230771Y-69332710D02*
X150339628Y-69441568D01*
X150339628Y-69441568D02*
X150557342Y-69550425D01*
X150557342Y-69550425D02*
X150883913Y-69550425D01*
X149142199Y-69550425D02*
X149142199Y-68026425D01*
X149142199Y-68244139D02*
X149033342Y-68135282D01*
X149033342Y-68135282D02*
X148815627Y-68026425D01*
X148815627Y-68026425D02*
X148489056Y-68026425D01*
X148489056Y-68026425D02*
X148271342Y-68135282D01*
X148271342Y-68135282D02*
X148162485Y-68352996D01*
X148162485Y-68352996D02*
X148162485Y-69550425D01*
X148162485Y-68352996D02*
X148053627Y-68135282D01*
X148053627Y-68135282D02*
X147835913Y-68026425D01*
X147835913Y-68026425D02*
X147509342Y-68026425D01*
X147509342Y-68026425D02*
X147291627Y-68135282D01*
X147291627Y-68135282D02*
X147182770Y-68352996D01*
X147182770Y-68352996D02*
X147182770Y-69550425D01*
X146094199Y-68026425D02*
X146094199Y-70312425D01*
X146094199Y-68135282D02*
X145876485Y-68026425D01*
X145876485Y-68026425D02*
X145441056Y-68026425D01*
X145441056Y-68026425D02*
X145223342Y-68135282D01*
X145223342Y-68135282D02*
X145114485Y-68244139D01*
X145114485Y-68244139D02*
X145005627Y-68461853D01*
X145005627Y-68461853D02*
X145005627Y-69114996D01*
X145005627Y-69114996D02*
X145114485Y-69332710D01*
X145114485Y-69332710D02*
X145223342Y-69441568D01*
X145223342Y-69441568D02*
X145441056Y-69550425D01*
X145441056Y-69550425D02*
X145876485Y-69550425D01*
X145876485Y-69550425D02*
X146094199Y-69441568D01*
X143046199Y-68026425D02*
X143046199Y-69550425D01*
X144025913Y-68026425D02*
X144025913Y-69223853D01*
X144025913Y-69223853D02*
X143917056Y-69441568D01*
X143917056Y-69441568D02*
X143699341Y-69550425D01*
X143699341Y-69550425D02*
X143372770Y-69550425D01*
X143372770Y-69550425D02*
X143155056Y-69441568D01*
X143155056Y-69441568D02*
X143046199Y-69332710D01*
X142284198Y-68026425D02*
X141413341Y-68026425D01*
X141957627Y-67264425D02*
X141957627Y-69223853D01*
X141957627Y-69223853D02*
X141848770Y-69441568D01*
X141848770Y-69441568D02*
X141631055Y-69550425D01*
X141631055Y-69550425D02*
X141413341Y-69550425D01*
X139780484Y-69441568D02*
X139998198Y-69550425D01*
X139998198Y-69550425D02*
X140433627Y-69550425D01*
X140433627Y-69550425D02*
X140651341Y-69441568D01*
X140651341Y-69441568D02*
X140760198Y-69223853D01*
X140760198Y-69223853D02*
X140760198Y-68352996D01*
X140760198Y-68352996D02*
X140651341Y-68135282D01*
X140651341Y-68135282D02*
X140433627Y-68026425D01*
X140433627Y-68026425D02*
X139998198Y-68026425D01*
X139998198Y-68026425D02*
X139780484Y-68135282D01*
X139780484Y-68135282D02*
X139671627Y-68352996D01*
X139671627Y-68352996D02*
X139671627Y-68570710D01*
X139671627Y-68570710D02*
X140760198Y-68788425D01*
X138691912Y-69550425D02*
X138691912Y-68026425D01*
X138691912Y-68461853D02*
X138583055Y-68244139D01*
X138583055Y-68244139D02*
X138474198Y-68135282D01*
X138474198Y-68135282D02*
X138256483Y-68026425D01*
X138256483Y-68026425D02*
X138038769Y-68026425D01*
X137276769Y-68679568D02*
X135535055Y-68679568D01*
X133466769Y-69550425D02*
X133466769Y-68352996D01*
X133466769Y-68352996D02*
X133575626Y-68135282D01*
X133575626Y-68135282D02*
X133793340Y-68026425D01*
X133793340Y-68026425D02*
X134228769Y-68026425D01*
X134228769Y-68026425D02*
X134446483Y-68135282D01*
X133466769Y-69441568D02*
X133684483Y-69550425D01*
X133684483Y-69550425D02*
X134228769Y-69550425D01*
X134228769Y-69550425D02*
X134446483Y-69441568D01*
X134446483Y-69441568D02*
X134555340Y-69223853D01*
X134555340Y-69223853D02*
X134555340Y-69006139D01*
X134555340Y-69006139D02*
X134446483Y-68788425D01*
X134446483Y-68788425D02*
X134228769Y-68679568D01*
X134228769Y-68679568D02*
X133684483Y-68679568D01*
X133684483Y-68679568D02*
X133466769Y-68570710D01*
X132378197Y-69550425D02*
X132378197Y-68026425D01*
X132378197Y-67264425D02*
X132487054Y-67373282D01*
X132487054Y-67373282D02*
X132378197Y-67482139D01*
X132378197Y-67482139D02*
X132269340Y-67373282D01*
X132269340Y-67373282D02*
X132378197Y-67264425D01*
X132378197Y-67264425D02*
X132378197Y-67482139D01*
X130309912Y-69550425D02*
X130309912Y-67264425D01*
X130309912Y-69441568D02*
X130527626Y-69550425D01*
X130527626Y-69550425D02*
X130963054Y-69550425D01*
X130963054Y-69550425D02*
X131180769Y-69441568D01*
X131180769Y-69441568D02*
X131289626Y-69332710D01*
X131289626Y-69332710D02*
X131398483Y-69114996D01*
X131398483Y-69114996D02*
X131398483Y-68461853D01*
X131398483Y-68461853D02*
X131289626Y-68244139D01*
X131289626Y-68244139D02*
X131180769Y-68135282D01*
X131180769Y-68135282D02*
X130963054Y-68026425D01*
X130963054Y-68026425D02*
X130527626Y-68026425D01*
X130527626Y-68026425D02*
X130309912Y-68135282D01*
X128350483Y-69441568D02*
X128568197Y-69550425D01*
X128568197Y-69550425D02*
X129003626Y-69550425D01*
X129003626Y-69550425D02*
X129221340Y-69441568D01*
X129221340Y-69441568D02*
X129330197Y-69223853D01*
X129330197Y-69223853D02*
X129330197Y-68352996D01*
X129330197Y-68352996D02*
X129221340Y-68135282D01*
X129221340Y-68135282D02*
X129003626Y-68026425D01*
X129003626Y-68026425D02*
X128568197Y-68026425D01*
X128568197Y-68026425D02*
X128350483Y-68135282D01*
X128350483Y-68135282D02*
X128241626Y-68352996D01*
X128241626Y-68352996D02*
X128241626Y-68570710D01*
X128241626Y-68570710D02*
X129330197Y-68788425D01*
X126282197Y-69550425D02*
X126282197Y-67264425D01*
X126282197Y-69441568D02*
X126499911Y-69550425D01*
X126499911Y-69550425D02*
X126935339Y-69550425D01*
X126935339Y-69550425D02*
X127153054Y-69441568D01*
X127153054Y-69441568D02*
X127261911Y-69332710D01*
X127261911Y-69332710D02*
X127370768Y-69114996D01*
X127370768Y-69114996D02*
X127370768Y-68461853D01*
X127370768Y-68461853D02*
X127261911Y-68244139D01*
X127261911Y-68244139D02*
X127153054Y-68135282D01*
X127153054Y-68135282D02*
X126935339Y-68026425D01*
X126935339Y-68026425D02*
X126499911Y-68026425D01*
X126499911Y-68026425D02*
X126282197Y-68135282D01*
X122472197Y-69550425D02*
X122472197Y-67264425D01*
X122472197Y-69441568D02*
X122689911Y-69550425D01*
X122689911Y-69550425D02*
X123125339Y-69550425D01*
X123125339Y-69550425D02*
X123343054Y-69441568D01*
X123343054Y-69441568D02*
X123451911Y-69332710D01*
X123451911Y-69332710D02*
X123560768Y-69114996D01*
X123560768Y-69114996D02*
X123560768Y-68461853D01*
X123560768Y-68461853D02*
X123451911Y-68244139D01*
X123451911Y-68244139D02*
X123343054Y-68135282D01*
X123343054Y-68135282D02*
X123125339Y-68026425D01*
X123125339Y-68026425D02*
X122689911Y-68026425D01*
X122689911Y-68026425D02*
X122472197Y-68135282D01*
X120512768Y-69441568D02*
X120730482Y-69550425D01*
X120730482Y-69550425D02*
X121165911Y-69550425D01*
X121165911Y-69550425D02*
X121383625Y-69441568D01*
X121383625Y-69441568D02*
X121492482Y-69223853D01*
X121492482Y-69223853D02*
X121492482Y-68352996D01*
X121492482Y-68352996D02*
X121383625Y-68135282D01*
X121383625Y-68135282D02*
X121165911Y-68026425D01*
X121165911Y-68026425D02*
X120730482Y-68026425D01*
X120730482Y-68026425D02*
X120512768Y-68135282D01*
X120512768Y-68135282D02*
X120403911Y-68352996D01*
X120403911Y-68352996D02*
X120403911Y-68570710D01*
X120403911Y-68570710D02*
X121492482Y-68788425D01*
X119533053Y-69441568D02*
X119315339Y-69550425D01*
X119315339Y-69550425D02*
X118879910Y-69550425D01*
X118879910Y-69550425D02*
X118662196Y-69441568D01*
X118662196Y-69441568D02*
X118553339Y-69223853D01*
X118553339Y-69223853D02*
X118553339Y-69114996D01*
X118553339Y-69114996D02*
X118662196Y-68897282D01*
X118662196Y-68897282D02*
X118879910Y-68788425D01*
X118879910Y-68788425D02*
X119206482Y-68788425D01*
X119206482Y-68788425D02*
X119424196Y-68679568D01*
X119424196Y-68679568D02*
X119533053Y-68461853D01*
X119533053Y-68461853D02*
X119533053Y-68352996D01*
X119533053Y-68352996D02*
X119424196Y-68135282D01*
X119424196Y-68135282D02*
X119206482Y-68026425D01*
X119206482Y-68026425D02*
X118879910Y-68026425D01*
X118879910Y-68026425D02*
X118662196Y-68135282D01*
X117573625Y-69550425D02*
X117573625Y-68026425D01*
X117573625Y-67264425D02*
X117682482Y-67373282D01*
X117682482Y-67373282D02*
X117573625Y-67482139D01*
X117573625Y-67482139D02*
X117464768Y-67373282D01*
X117464768Y-67373282D02*
X117573625Y-67264425D01*
X117573625Y-67264425D02*
X117573625Y-67482139D01*
X115505340Y-68026425D02*
X115505340Y-69876996D01*
X115505340Y-69876996D02*
X115614197Y-70094710D01*
X115614197Y-70094710D02*
X115723054Y-70203568D01*
X115723054Y-70203568D02*
X115940768Y-70312425D01*
X115940768Y-70312425D02*
X116267340Y-70312425D01*
X116267340Y-70312425D02*
X116485054Y-70203568D01*
X115505340Y-69441568D02*
X115723054Y-69550425D01*
X115723054Y-69550425D02*
X116158482Y-69550425D01*
X116158482Y-69550425D02*
X116376197Y-69441568D01*
X116376197Y-69441568D02*
X116485054Y-69332710D01*
X116485054Y-69332710D02*
X116593911Y-69114996D01*
X116593911Y-69114996D02*
X116593911Y-68461853D01*
X116593911Y-68461853D02*
X116485054Y-68244139D01*
X116485054Y-68244139D02*
X116376197Y-68135282D01*
X116376197Y-68135282D02*
X116158482Y-68026425D01*
X116158482Y-68026425D02*
X115723054Y-68026425D01*
X115723054Y-68026425D02*
X115505340Y-68135282D01*
X114416768Y-68026425D02*
X114416768Y-69550425D01*
X114416768Y-68244139D02*
X114307911Y-68135282D01*
X114307911Y-68135282D02*
X114090196Y-68026425D01*
X114090196Y-68026425D02*
X113763625Y-68026425D01*
X113763625Y-68026425D02*
X113545911Y-68135282D01*
X113545911Y-68135282D02*
X113437054Y-68352996D01*
X113437054Y-68352996D02*
X113437054Y-69550425D01*
D14*
X108354819Y-57911905D02*
X107354819Y-57911905D01*
X107354819Y-57911905D02*
X107354819Y-58150000D01*
X107354819Y-58150000D02*
X107402438Y-58292857D01*
X107402438Y-58292857D02*
X107497676Y-58388095D01*
X107497676Y-58388095D02*
X107592914Y-58435714D01*
X107592914Y-58435714D02*
X107783390Y-58483333D01*
X107783390Y-58483333D02*
X107926247Y-58483333D01*
X107926247Y-58483333D02*
X108116723Y-58435714D01*
X108116723Y-58435714D02*
X108211961Y-58388095D01*
X108211961Y-58388095D02*
X108307200Y-58292857D01*
X108307200Y-58292857D02*
X108354819Y-58150000D01*
X108354819Y-58150000D02*
X108354819Y-57911905D01*
X108354819Y-59435714D02*
X108354819Y-58864286D01*
X108354819Y-59150000D02*
X107354819Y-59150000D01*
X107354819Y-59150000D02*
X107497676Y-59054762D01*
X107497676Y-59054762D02*
X107592914Y-58959524D01*
X107592914Y-58959524D02*
X107640533Y-58864286D01*
X208561904Y-53454819D02*
X208561904Y-52454819D01*
X208561904Y-52931009D02*
X207990476Y-52931009D01*
X207990476Y-53454819D02*
X207990476Y-52454819D01*
X207561904Y-52550057D02*
X207514285Y-52502438D01*
X207514285Y-52502438D02*
X207419047Y-52454819D01*
X207419047Y-52454819D02*
X207180952Y-52454819D01*
X207180952Y-52454819D02*
X207085714Y-52502438D01*
X207085714Y-52502438D02*
X207038095Y-52550057D01*
X207038095Y-52550057D02*
X206990476Y-52645295D01*
X206990476Y-52645295D02*
X206990476Y-52740533D01*
X206990476Y-52740533D02*
X207038095Y-52883390D01*
X207038095Y-52883390D02*
X207609523Y-53454819D01*
X207609523Y-53454819D02*
X206990476Y-53454819D01*
X193266666Y-74004819D02*
X193599999Y-73528628D01*
X193838094Y-74004819D02*
X193838094Y-73004819D01*
X193838094Y-73004819D02*
X193457142Y-73004819D01*
X193457142Y-73004819D02*
X193361904Y-73052438D01*
X193361904Y-73052438D02*
X193314285Y-73100057D01*
X193314285Y-73100057D02*
X193266666Y-73195295D01*
X193266666Y-73195295D02*
X193266666Y-73338152D01*
X193266666Y-73338152D02*
X193314285Y-73433390D01*
X193314285Y-73433390D02*
X193361904Y-73481009D01*
X193361904Y-73481009D02*
X193457142Y-73528628D01*
X193457142Y-73528628D02*
X193838094Y-73528628D01*
X192314285Y-74004819D02*
X192885713Y-74004819D01*
X192599999Y-74004819D02*
X192599999Y-73004819D01*
X192599999Y-73004819D02*
X192695237Y-73147676D01*
X192695237Y-73147676D02*
X192790475Y-73242914D01*
X192790475Y-73242914D02*
X192885713Y-73290533D01*
X128754819Y-82561905D02*
X127754819Y-82561905D01*
X127754819Y-82561905D02*
X127754819Y-82800000D01*
X127754819Y-82800000D02*
X127802438Y-82942857D01*
X127802438Y-82942857D02*
X127897676Y-83038095D01*
X127897676Y-83038095D02*
X127992914Y-83085714D01*
X127992914Y-83085714D02*
X128183390Y-83133333D01*
X128183390Y-83133333D02*
X128326247Y-83133333D01*
X128326247Y-83133333D02*
X128516723Y-83085714D01*
X128516723Y-83085714D02*
X128611961Y-83038095D01*
X128611961Y-83038095D02*
X128707200Y-82942857D01*
X128707200Y-82942857D02*
X128754819Y-82800000D01*
X128754819Y-82800000D02*
X128754819Y-82561905D01*
X127754819Y-83990476D02*
X127754819Y-83800000D01*
X127754819Y-83800000D02*
X127802438Y-83704762D01*
X127802438Y-83704762D02*
X127850057Y-83657143D01*
X127850057Y-83657143D02*
X127992914Y-83561905D01*
X127992914Y-83561905D02*
X128183390Y-83514286D01*
X128183390Y-83514286D02*
X128564342Y-83514286D01*
X128564342Y-83514286D02*
X128659580Y-83561905D01*
X128659580Y-83561905D02*
X128707200Y-83609524D01*
X128707200Y-83609524D02*
X128754819Y-83704762D01*
X128754819Y-83704762D02*
X128754819Y-83895238D01*
X128754819Y-83895238D02*
X128707200Y-83990476D01*
X128707200Y-83990476D02*
X128659580Y-84038095D01*
X128659580Y-84038095D02*
X128564342Y-84085714D01*
X128564342Y-84085714D02*
X128326247Y-84085714D01*
X128326247Y-84085714D02*
X128231009Y-84038095D01*
X128231009Y-84038095D02*
X128183390Y-83990476D01*
X128183390Y-83990476D02*
X128135771Y-83895238D01*
X128135771Y-83895238D02*
X128135771Y-83704762D01*
X128135771Y-83704762D02*
X128183390Y-83609524D01*
X128183390Y-83609524D02*
X128231009Y-83561905D01*
X128231009Y-83561905D02*
X128326247Y-83514286D01*
X168454819Y-57911905D02*
X167454819Y-57911905D01*
X167454819Y-57911905D02*
X167454819Y-58150000D01*
X167454819Y-58150000D02*
X167502438Y-58292857D01*
X167502438Y-58292857D02*
X167597676Y-58388095D01*
X167597676Y-58388095D02*
X167692914Y-58435714D01*
X167692914Y-58435714D02*
X167883390Y-58483333D01*
X167883390Y-58483333D02*
X168026247Y-58483333D01*
X168026247Y-58483333D02*
X168216723Y-58435714D01*
X168216723Y-58435714D02*
X168311961Y-58388095D01*
X168311961Y-58388095D02*
X168407200Y-58292857D01*
X168407200Y-58292857D02*
X168454819Y-58150000D01*
X168454819Y-58150000D02*
X168454819Y-57911905D01*
X167788152Y-59340476D02*
X168454819Y-59340476D01*
X167407200Y-59102381D02*
X168121485Y-58864286D01*
X168121485Y-58864286D02*
X168121485Y-59483333D01*
X208661904Y-87654819D02*
X208661904Y-86654819D01*
X208661904Y-87131009D02*
X208090476Y-87131009D01*
X208090476Y-87654819D02*
X208090476Y-86654819D01*
X207185714Y-86988152D02*
X207185714Y-87654819D01*
X207423809Y-86607200D02*
X207661904Y-87321485D01*
X207661904Y-87321485D02*
X207042857Y-87321485D01*
X100261721Y-87654819D02*
X100261721Y-86654819D01*
X100261721Y-87131009D02*
X99690293Y-87131009D01*
X99690293Y-87654819D02*
X99690293Y-86654819D01*
X99309340Y-86654819D02*
X98690293Y-86654819D01*
X98690293Y-86654819D02*
X99023626Y-87035771D01*
X99023626Y-87035771D02*
X98880769Y-87035771D01*
X98880769Y-87035771D02*
X98785531Y-87083390D01*
X98785531Y-87083390D02*
X98737912Y-87131009D01*
X98737912Y-87131009D02*
X98690293Y-87226247D01*
X98690293Y-87226247D02*
X98690293Y-87464342D01*
X98690293Y-87464342D02*
X98737912Y-87559580D01*
X98737912Y-87559580D02*
X98785531Y-87607200D01*
X98785531Y-87607200D02*
X98880769Y-87654819D01*
X98880769Y-87654819D02*
X99166483Y-87654819D01*
X99166483Y-87654819D02*
X99261721Y-87607200D01*
X99261721Y-87607200D02*
X99309340Y-87559580D01*
X168554819Y-82561905D02*
X167554819Y-82561905D01*
X167554819Y-82561905D02*
X167554819Y-82800000D01*
X167554819Y-82800000D02*
X167602438Y-82942857D01*
X167602438Y-82942857D02*
X167697676Y-83038095D01*
X167697676Y-83038095D02*
X167792914Y-83085714D01*
X167792914Y-83085714D02*
X167983390Y-83133333D01*
X167983390Y-83133333D02*
X168126247Y-83133333D01*
X168126247Y-83133333D02*
X168316723Y-83085714D01*
X168316723Y-83085714D02*
X168411961Y-83038095D01*
X168411961Y-83038095D02*
X168507200Y-82942857D01*
X168507200Y-82942857D02*
X168554819Y-82800000D01*
X168554819Y-82800000D02*
X168554819Y-82561905D01*
X167983390Y-83704762D02*
X167935771Y-83609524D01*
X167935771Y-83609524D02*
X167888152Y-83561905D01*
X167888152Y-83561905D02*
X167792914Y-83514286D01*
X167792914Y-83514286D02*
X167745295Y-83514286D01*
X167745295Y-83514286D02*
X167650057Y-83561905D01*
X167650057Y-83561905D02*
X167602438Y-83609524D01*
X167602438Y-83609524D02*
X167554819Y-83704762D01*
X167554819Y-83704762D02*
X167554819Y-83895238D01*
X167554819Y-83895238D02*
X167602438Y-83990476D01*
X167602438Y-83990476D02*
X167650057Y-84038095D01*
X167650057Y-84038095D02*
X167745295Y-84085714D01*
X167745295Y-84085714D02*
X167792914Y-84085714D01*
X167792914Y-84085714D02*
X167888152Y-84038095D01*
X167888152Y-84038095D02*
X167935771Y-83990476D01*
X167935771Y-83990476D02*
X167983390Y-83895238D01*
X167983390Y-83895238D02*
X167983390Y-83704762D01*
X167983390Y-83704762D02*
X168031009Y-83609524D01*
X168031009Y-83609524D02*
X168078628Y-83561905D01*
X168078628Y-83561905D02*
X168173866Y-83514286D01*
X168173866Y-83514286D02*
X168364342Y-83514286D01*
X168364342Y-83514286D02*
X168459580Y-83561905D01*
X168459580Y-83561905D02*
X168507200Y-83609524D01*
X168507200Y-83609524D02*
X168554819Y-83704762D01*
X168554819Y-83704762D02*
X168554819Y-83895238D01*
X168554819Y-83895238D02*
X168507200Y-83990476D01*
X168507200Y-83990476D02*
X168459580Y-84038095D01*
X168459580Y-84038095D02*
X168364342Y-84085714D01*
X168364342Y-84085714D02*
X168173866Y-84085714D01*
X168173866Y-84085714D02*
X168078628Y-84038095D01*
X168078628Y-84038095D02*
X168031009Y-83990476D01*
X168031009Y-83990476D02*
X167983390Y-83895238D01*
X148554819Y-82561905D02*
X147554819Y-82561905D01*
X147554819Y-82561905D02*
X147554819Y-82800000D01*
X147554819Y-82800000D02*
X147602438Y-82942857D01*
X147602438Y-82942857D02*
X147697676Y-83038095D01*
X147697676Y-83038095D02*
X147792914Y-83085714D01*
X147792914Y-83085714D02*
X147983390Y-83133333D01*
X147983390Y-83133333D02*
X148126247Y-83133333D01*
X148126247Y-83133333D02*
X148316723Y-83085714D01*
X148316723Y-83085714D02*
X148411961Y-83038095D01*
X148411961Y-83038095D02*
X148507200Y-82942857D01*
X148507200Y-82942857D02*
X148554819Y-82800000D01*
X148554819Y-82800000D02*
X148554819Y-82561905D01*
X147554819Y-83466667D02*
X147554819Y-84133333D01*
X147554819Y-84133333D02*
X148554819Y-83704762D01*
X100161904Y-53754819D02*
X100161904Y-52754819D01*
X100161904Y-53231009D02*
X99590476Y-53231009D01*
X99590476Y-53754819D02*
X99590476Y-52754819D01*
X98590476Y-53754819D02*
X99161904Y-53754819D01*
X98876190Y-53754819D02*
X98876190Y-52754819D01*
X98876190Y-52754819D02*
X98971428Y-52897676D01*
X98971428Y-52897676D02*
X99066666Y-52992914D01*
X99066666Y-52992914D02*
X99161904Y-53040533D01*
X108854819Y-82361905D02*
X107854819Y-82361905D01*
X107854819Y-82361905D02*
X107854819Y-82600000D01*
X107854819Y-82600000D02*
X107902438Y-82742857D01*
X107902438Y-82742857D02*
X107997676Y-82838095D01*
X107997676Y-82838095D02*
X108092914Y-82885714D01*
X108092914Y-82885714D02*
X108283390Y-82933333D01*
X108283390Y-82933333D02*
X108426247Y-82933333D01*
X108426247Y-82933333D02*
X108616723Y-82885714D01*
X108616723Y-82885714D02*
X108711961Y-82838095D01*
X108711961Y-82838095D02*
X108807200Y-82742857D01*
X108807200Y-82742857D02*
X108854819Y-82600000D01*
X108854819Y-82600000D02*
X108854819Y-82361905D01*
X107854819Y-83838095D02*
X107854819Y-83361905D01*
X107854819Y-83361905D02*
X108331009Y-83314286D01*
X108331009Y-83314286D02*
X108283390Y-83361905D01*
X108283390Y-83361905D02*
X108235771Y-83457143D01*
X108235771Y-83457143D02*
X108235771Y-83695238D01*
X108235771Y-83695238D02*
X108283390Y-83790476D01*
X108283390Y-83790476D02*
X108331009Y-83838095D01*
X108331009Y-83838095D02*
X108426247Y-83885714D01*
X108426247Y-83885714D02*
X108664342Y-83885714D01*
X108664342Y-83885714D02*
X108759580Y-83838095D01*
X108759580Y-83838095D02*
X108807200Y-83790476D01*
X108807200Y-83790476D02*
X108854819Y-83695238D01*
X108854819Y-83695238D02*
X108854819Y-83457143D01*
X108854819Y-83457143D02*
X108807200Y-83361905D01*
X108807200Y-83361905D02*
X108759580Y-83314286D01*
X148754819Y-57861905D02*
X147754819Y-57861905D01*
X147754819Y-57861905D02*
X147754819Y-58100000D01*
X147754819Y-58100000D02*
X147802438Y-58242857D01*
X147802438Y-58242857D02*
X147897676Y-58338095D01*
X147897676Y-58338095D02*
X147992914Y-58385714D01*
X147992914Y-58385714D02*
X148183390Y-58433333D01*
X148183390Y-58433333D02*
X148326247Y-58433333D01*
X148326247Y-58433333D02*
X148516723Y-58385714D01*
X148516723Y-58385714D02*
X148611961Y-58338095D01*
X148611961Y-58338095D02*
X148707200Y-58242857D01*
X148707200Y-58242857D02*
X148754819Y-58100000D01*
X148754819Y-58100000D02*
X148754819Y-57861905D01*
X147754819Y-58766667D02*
X147754819Y-59385714D01*
X147754819Y-59385714D02*
X148135771Y-59052381D01*
X148135771Y-59052381D02*
X148135771Y-59195238D01*
X148135771Y-59195238D02*
X148183390Y-59290476D01*
X148183390Y-59290476D02*
X148231009Y-59338095D01*
X148231009Y-59338095D02*
X148326247Y-59385714D01*
X148326247Y-59385714D02*
X148564342Y-59385714D01*
X148564342Y-59385714D02*
X148659580Y-59338095D01*
X148659580Y-59338095D02*
X148707200Y-59290476D01*
X148707200Y-59290476D02*
X148754819Y-59195238D01*
X148754819Y-59195238D02*
X148754819Y-58909524D01*
X148754819Y-58909524D02*
X148707200Y-58814286D01*
X148707200Y-58814286D02*
X148659580Y-58766667D01*
X128554819Y-57861905D02*
X127554819Y-57861905D01*
X127554819Y-57861905D02*
X127554819Y-58100000D01*
X127554819Y-58100000D02*
X127602438Y-58242857D01*
X127602438Y-58242857D02*
X127697676Y-58338095D01*
X127697676Y-58338095D02*
X127792914Y-58385714D01*
X127792914Y-58385714D02*
X127983390Y-58433333D01*
X127983390Y-58433333D02*
X128126247Y-58433333D01*
X128126247Y-58433333D02*
X128316723Y-58385714D01*
X128316723Y-58385714D02*
X128411961Y-58338095D01*
X128411961Y-58338095D02*
X128507200Y-58242857D01*
X128507200Y-58242857D02*
X128554819Y-58100000D01*
X128554819Y-58100000D02*
X128554819Y-57861905D01*
X127650057Y-58814286D02*
X127602438Y-58861905D01*
X127602438Y-58861905D02*
X127554819Y-58957143D01*
X127554819Y-58957143D02*
X127554819Y-59195238D01*
X127554819Y-59195238D02*
X127602438Y-59290476D01*
X127602438Y-59290476D02*
X127650057Y-59338095D01*
X127650057Y-59338095D02*
X127745295Y-59385714D01*
X127745295Y-59385714D02*
X127840533Y-59385714D01*
X127840533Y-59385714D02*
X127983390Y-59338095D01*
X127983390Y-59338095D02*
X128554819Y-58766667D01*
X128554819Y-58766667D02*
X128554819Y-59385714D01*
%TO.C,D1*%
D15*
X104900000Y-61010000D02*
X104900000Y-57000000D01*
X106900000Y-61010000D02*
X104900000Y-61010000D01*
X106900000Y-61010000D02*
X106900000Y-57000000D01*
%TO.C,R1*%
X193327064Y-74465000D02*
X192872936Y-74465000D01*
X193327064Y-75935000D02*
X192872936Y-75935000D01*
%TO.C,D6*%
X125300000Y-85660000D02*
X125300000Y-81650000D01*
X127300000Y-85660000D02*
X125300000Y-85660000D01*
X127300000Y-85660000D02*
X127300000Y-81650000D01*
%TO.C,D4*%
X165000000Y-61010000D02*
X165000000Y-57000000D01*
X167000000Y-61010000D02*
X165000000Y-61010000D01*
X167000000Y-61010000D02*
X167000000Y-57000000D01*
%TO.C,D8*%
X165100000Y-85660000D02*
X165100000Y-81650000D01*
X167100000Y-85660000D02*
X165100000Y-85660000D01*
X167100000Y-85660000D02*
X167100000Y-81650000D01*
%TO.C,D7*%
X145100000Y-85660000D02*
X145100000Y-81650000D01*
X147100000Y-85660000D02*
X145100000Y-85660000D01*
X147100000Y-85660000D02*
X147100000Y-81650000D01*
%TO.C,D5*%
X105400000Y-85460000D02*
X105400000Y-81450000D01*
X107400000Y-85460000D02*
X105400000Y-85460000D01*
X107400000Y-85460000D02*
X107400000Y-81450000D01*
%TO.C,D3*%
X145300000Y-60960000D02*
X145300000Y-56950000D01*
X147300000Y-60960000D02*
X145300000Y-60960000D01*
X147300000Y-60960000D02*
X147300000Y-56950000D01*
%TO.C,D2*%
X125100000Y-60960000D02*
X125100000Y-56950000D01*
X127100000Y-60960000D02*
X125100000Y-60960000D01*
X127100000Y-60960000D02*
X127100000Y-56950000D01*
%TD*%
M02*
